<svg xmlns="http://www.w3.org/2000/svg" xmlns:xlink="http://www.w3.org/1999/xlink" width="180" zoomAndPan="magnify" viewBox="0 0 135 44.999999" height="60" preserveAspectRatio="xMidYMid meet" version="1.0"><defs><g/></defs><rect x="-13.5" width="162" fill="#ffffff" y="-4.5" height="53.999999" fill-opacity="1"/><rect x="-13.5" width="162" fill="#ffffff" y="-4.5" height="53.999999" fill-opacity="1"/><g fill="#333333" fill-opacity="1"><g transform="translate(14.718253, 26.485432)"><g><path d="M 10.121094 -3.382812 C 9.636719 -2.257812 8.636719 -1.289062 7.382812 -1.289062 C 6.089844 -1.289062 5.285156 -2.222656 5.285156 -4.027344 C 5.285156 -6.316406 6.542969 -7.414062 9.636719 -7.414062 L 10.121094 -7.414062 Z M 7.703125 -15.472656 C 5.609375 -15.472656 3.640625 -15.214844 2.867188 -14.34375 C 2.09375 -13.472656 2.0625 -12.246094 2.0625 -11.121094 L 3.835938 -11.121094 C 4.351562 -13.535156 5.609375 -14.019531 7.058594 -14.019531 C 8.992188 -14.019531 10.121094 -12.730469 10.121094 -8.863281 L 9.636719 -8.863281 C 2.707031 -8.863281 0.933594 -7.089844 0.933594 -4.027344 C 0.933594 -1.449219 2.835938 0.324219 6.414062 0.324219 C 8.058594 0.324219 9.445312 -0.324219 10.28125 -1.449219 L 10.441406 -1.449219 L 11.570312 0 L 14.3125 0 L 14.3125 -8.703125 C 14.3125 -13.246094 11.925781 -15.472656 7.703125 -15.472656 Z M 7.703125 -15.472656 "/></g></g></g><g fill="#333333" fill-opacity="1"><g transform="translate(30.704327, 26.485432)"><g><path d="M 9.507812 -13.859375 C 11.28125 -13.859375 12.570312 -12.699219 12.570312 -9.574219 L 12.570312 0 L 16.761719 0 L 16.761719 -9.539062 C 16.761719 -13.699219 14.664062 -15.472656 10.636719 -15.472656 C 7.992188 -15.472656 6.703125 -14.664062 5.929688 -13.957031 C 5.445312 -14.828125 4.671875 -15.148438 3.222656 -15.148438 L 0.03125 -15.148438 L 0.03125 -14.183594 L 0.355469 -14.183594 C 2.289062 -14.183594 2.578125 -12.890625 2.578125 -10.957031 L 2.578125 0 L 6.769531 0 L 6.769531 -11.152344 C 6.769531 -11.828125 6.703125 -12.375 6.542969 -12.859375 C 7.089844 -13.40625 8.121094 -13.859375 9.507812 -13.859375 Z M 9.507812 -13.859375 "/></g></g></g><g fill="#333333" fill-opacity="1"><g transform="translate(49.236568, 26.485432)"><g><path d="M 11.507812 -3.222656 C 10.894531 -2.09375 9.925781 -1.128906 8.605469 -1.128906 C 6.347656 -1.128906 5.542969 -3.867188 5.542969 -7.574219 C 5.542969 -11.28125 6.347656 -14.019531 8.765625 -14.019531 C 9.765625 -14.019531 10.765625 -13.632812 11.507812 -13.054688 Z M 11.507812 -14.503906 C 10.476562 -15.148438 9.316406 -15.472656 8.121094 -15.472656 C 3.449219 -15.472656 1.191406 -11.988281 1.191406 -7.574219 C 1.191406 -3.160156 3.449219 0.324219 7.960938 0.324219 C 9.378906 0.324219 10.925781 -0.257812 11.667969 -1.449219 L 11.828125 -1.449219 L 12.957031 0 L 15.695312 0 L 15.695312 -17.082031 C 15.695312 -20.273438 15.050781 -21.273438 12.796875 -21.273438 L 8.929688 -21.273438 L 8.929688 -20.304688 L 9.25 -20.304688 C 11.183594 -20.304688 11.507812 -19.015625 11.507812 -17.082031 Z M 11.507812 -14.503906 "/></g></g></g><g fill="#333333" fill-opacity="1"><g transform="translate(66.86637, 26.485432)"><g><path d="M 9.992188 -15.472656 C 8.058594 -15.472656 6.703125 -14.632812 5.929688 -13.957031 C 5.445312 -14.828125 4.671875 -15.148438 3.222656 -15.148438 L 0.03125 -15.148438 L 0.03125 -14.183594 L 0.355469 -14.183594 C 2.289062 -14.183594 2.578125 -12.890625 2.578125 -10.957031 L 2.578125 0 L 6.769531 0 L 6.769531 -10.828125 C 6.769531 -11.410156 6.734375 -11.925781 6.640625 -12.375 C 7.1875 -12.925781 8.121094 -13.375 9.507812 -13.375 C 10.441406 -13.375 11.25 -12.828125 11.730469 -12.117188 L 13.375 -13.375 C 12.667969 -14.792969 11.570312 -15.472656 9.992188 -15.472656 Z M 9.992188 -15.472656 "/></g></g></g><g fill="#333333" fill-opacity="1"><g transform="translate(80.338504, 26.485432)"><g><path d="M 9.089844 -1.128906 C 6.996094 -1.128906 5.542969 -2.738281 5.542969 -6.996094 L 15.246094 -6.996094 C 15.34375 -7.671875 15.375 -8.25 15.375 -9.023438 C 15.375 -12.890625 12.28125 -15.472656 8.285156 -15.472656 C 4.285156 -15.472656 1.191406 -12.730469 1.191406 -7.574219 C 1.191406 -3.0625 4.0625 0.324219 8.605469 0.324219 C 12.117188 0.324219 13.761719 -1.613281 14.699219 -3.0625 L 13.699219 -3.804688 C 12.570312 -2.289062 11.3125 -1.128906 9.089844 -1.128906 Z M 5.542969 -8.445312 C 5.542969 -12.699219 6.832031 -14.019531 8.285156 -14.019531 C 9.894531 -14.019531 11.023438 -12.699219 11.023438 -8.445312 Z M 5.542969 -8.445312 "/></g></g></g><g fill="#333333" fill-opacity="1"><g transform="translate(96.743562, 26.485432)"><g><path d="M 10.121094 -3.382812 C 9.636719 -2.257812 8.636719 -1.289062 7.382812 -1.289062 C 6.089844 -1.289062 5.285156 -2.222656 5.285156 -4.027344 C 5.285156 -6.316406 6.542969 -7.414062 9.636719 -7.414062 L 10.121094 -7.414062 Z M 7.703125 -15.472656 C 5.609375 -15.472656 3.640625 -15.214844 2.867188 -14.34375 C 2.09375 -13.472656 2.0625 -12.246094 2.0625 -11.121094 L 3.835938 -11.121094 C 4.351562 -13.535156 5.609375 -14.019531 7.058594 -14.019531 C 8.992188 -14.019531 10.121094 -12.730469 10.121094 -8.863281 L 9.636719 -8.863281 C 2.707031 -8.863281 0.933594 -7.089844 0.933594 -4.027344 C 0.933594 -1.449219 2.835938 0.324219 6.414062 0.324219 C 8.058594 0.324219 9.445312 -0.324219 10.28125 -1.449219 L 10.441406 -1.449219 L 11.570312 0 L 14.3125 0 L 14.3125 -8.703125 C 14.3125 -13.246094 11.925781 -15.472656 7.703125 -15.472656 Z M 7.703125 -15.472656 "/></g></g></g><g fill="#333333" fill-opacity="1"><g transform="translate(112.729632, 26.485432)"><g><path d="M 5.574219 -1.515625 C 5.574219 -2.675781 4.867188 -3.480469 3.609375 -3.480469 C 2.351562 -3.480469 1.644531 -2.675781 1.644531 -1.515625 C 1.644531 -0.355469 2.351562 0.453125 3.609375 0.453125 C 4.867188 0.453125 5.574219 -0.355469 5.574219 -1.515625 Z M 5.574219 -1.515625 "/></g></g></g><g fill="#333333" fill-opacity="1"><g transform="translate(32.451872, 42.184458)"><g><path d="M 1.125 0 C 1.0625 0 1.007812 -0.015625 0.96875 -0.046875 C 0.925781 -0.0859375 0.90625 -0.144531 0.90625 -0.21875 L 0.90625 -6.5625 C 0.90625 -6.632812 0.925781 -6.691406 0.96875 -6.734375 C 1.007812 -6.773438 1.0625 -6.796875 1.125 -6.796875 L 3.65625 -6.796875 C 4.300781 -6.796875 4.785156 -6.628906 5.109375 -6.296875 C 5.441406 -5.960938 5.609375 -5.550781 5.609375 -5.0625 C 5.609375 -4.675781 5.523438 -4.359375 5.359375 -4.109375 C 5.191406 -3.867188 4.988281 -3.691406 4.75 -3.578125 C 5.03125 -3.429688 5.265625 -3.210938 5.453125 -2.921875 C 5.648438 -2.640625 5.75 -2.304688 5.75 -1.921875 C 5.75 -1.585938 5.664062 -1.269531 5.5 -0.96875 C 5.34375 -0.675781 5.113281 -0.441406 4.8125 -0.265625 C 4.507812 -0.0859375 4.144531 0 3.71875 0 Z M 3.53125 -3.84375 C 4.007812 -3.84375 4.375 -3.945312 4.625 -4.15625 C 4.875 -4.363281 5 -4.664062 5 -5.0625 C 5 -5.4375 4.875 -5.71875 4.625 -5.90625 C 4.375 -6.101562 4.007812 -6.203125 3.53125 -6.203125 L 1.515625 -6.203125 L 1.515625 -3.84375 Z M 3.625 -0.578125 C 4.101562 -0.578125 4.472656 -0.703125 4.734375 -0.953125 C 5.003906 -1.203125 5.140625 -1.523438 5.140625 -1.921875 C 5.140625 -2.316406 5.003906 -2.640625 4.734375 -2.890625 C 4.472656 -3.140625 4.101562 -3.265625 3.625 -3.265625 L 1.515625 -3.265625 L 1.515625 -0.578125 Z M 3.625 -0.578125 "/></g></g></g><g fill="#333333" fill-opacity="1"><g transform="translate(39.03339, 42.184458)"><g><path d="M 1.125 0 C 1.0625 0 1.007812 -0.015625 0.96875 -0.046875 C 0.925781 -0.0859375 0.90625 -0.144531 0.90625 -0.21875 L 0.90625 -6.578125 C 0.90625 -6.640625 0.925781 -6.691406 0.96875 -6.734375 C 1.007812 -6.773438 1.0625 -6.796875 1.125 -6.796875 L 1.3125 -6.796875 C 1.375 -6.796875 1.421875 -6.773438 1.453125 -6.734375 C 1.492188 -6.691406 1.515625 -6.640625 1.515625 -6.578125 L 1.515625 -0.578125 L 4.875 -0.578125 C 4.945312 -0.578125 5 -0.554688 5.03125 -0.515625 C 5.070312 -0.484375 5.09375 -0.429688 5.09375 -0.359375 L 5.09375 -0.21875 C 5.09375 -0.144531 5.070312 -0.0859375 5.03125 -0.046875 C 4.988281 -0.015625 4.9375 0 4.875 0 Z M 1.125 0 "/></g></g></g><g fill="#333333" fill-opacity="1"><g transform="translate(44.595655, 42.184458)"><g><path d="M 3.21875 0.09375 C 1.550781 0.09375 0.695312 -0.796875 0.65625 -2.578125 C 0.644531 -2.773438 0.640625 -3.046875 0.640625 -3.390625 C 0.640625 -3.742188 0.644531 -4.019531 0.65625 -4.21875 C 0.675781 -5.09375 0.910156 -5.753906 1.359375 -6.203125 C 1.816406 -6.660156 2.4375 -6.890625 3.21875 -6.890625 C 3.988281 -6.890625 4.597656 -6.660156 5.046875 -6.203125 C 5.503906 -5.753906 5.742188 -5.09375 5.765625 -4.21875 C 5.785156 -3.820312 5.796875 -3.546875 5.796875 -3.390625 C 5.796875 -3.234375 5.785156 -2.960938 5.765625 -2.578125 C 5.722656 -0.796875 4.875 0.09375 3.21875 0.09375 Z M 3.21875 -0.484375 C 3.789062 -0.484375 4.25 -0.660156 4.59375 -1.015625 C 4.945312 -1.367188 5.132812 -1.90625 5.15625 -2.625 C 5.175781 -3.019531 5.1875 -3.273438 5.1875 -3.390625 C 5.1875 -3.515625 5.175781 -3.769531 5.15625 -4.15625 C 5.132812 -4.882812 4.945312 -5.425781 4.59375 -5.78125 C 4.25 -6.132812 3.789062 -6.3125 3.21875 -6.3125 C 2.632812 -6.3125 2.164062 -6.132812 1.8125 -5.78125 C 1.46875 -5.425781 1.285156 -4.882812 1.265625 -4.15625 C 1.253906 -3.96875 1.25 -3.710938 1.25 -3.390625 C 1.25 -3.078125 1.253906 -2.820312 1.265625 -2.625 C 1.285156 -1.90625 1.46875 -1.367188 1.8125 -1.015625 C 2.164062 -0.660156 2.632812 -0.484375 3.21875 -0.484375 Z M 3.21875 -0.484375 "/></g></g></g><g fill="#333333" fill-opacity="1"><g transform="translate(51.26454, 42.184458)"><g><path d="M 1.125 0 C 1.0625 0 1.007812 -0.015625 0.96875 -0.046875 C 0.925781 -0.0859375 0.90625 -0.144531 0.90625 -0.21875 L 0.90625 -6.5625 C 0.90625 -6.632812 0.925781 -6.691406 0.96875 -6.734375 C 1.007812 -6.773438 1.0625 -6.796875 1.125 -6.796875 L 3.65625 -6.796875 C 4.300781 -6.796875 4.785156 -6.628906 5.109375 -6.296875 C 5.441406 -5.960938 5.609375 -5.550781 5.609375 -5.0625 C 5.609375 -4.675781 5.523438 -4.359375 5.359375 -4.109375 C 5.191406 -3.867188 4.988281 -3.691406 4.75 -3.578125 C 5.03125 -3.429688 5.265625 -3.210938 5.453125 -2.921875 C 5.648438 -2.640625 5.75 -2.304688 5.75 -1.921875 C 5.75 -1.585938 5.664062 -1.269531 5.5 -0.96875 C 5.34375 -0.675781 5.113281 -0.441406 4.8125 -0.265625 C 4.507812 -0.0859375 4.144531 0 3.71875 0 Z M 3.53125 -3.84375 C 4.007812 -3.84375 4.375 -3.945312 4.625 -4.15625 C 4.875 -4.363281 5 -4.664062 5 -5.0625 C 5 -5.4375 4.875 -5.71875 4.625 -5.90625 C 4.375 -6.101562 4.007812 -6.203125 3.53125 -6.203125 L 1.515625 -6.203125 L 1.515625 -3.84375 Z M 3.625 -0.578125 C 4.101562 -0.578125 4.472656 -0.703125 4.734375 -0.953125 C 5.003906 -1.203125 5.140625 -1.523438 5.140625 -1.921875 C 5.140625 -2.316406 5.003906 -2.640625 4.734375 -2.890625 C 4.472656 -3.140625 4.101562 -3.265625 3.625 -3.265625 L 1.515625 -3.265625 L 1.515625 -0.578125 Z M 3.625 -0.578125 "/></g></g></g><g fill="#333333" fill-opacity="1"><g transform="translate(57.846058, 42.184458)"><g><path d="M 1.125 0 C 1.0625 0 1.007812 -0.015625 0.96875 -0.046875 C 0.925781 -0.0859375 0.90625 -0.144531 0.90625 -0.21875 L 0.90625 -6.5625 C 0.90625 -6.632812 0.925781 -6.691406 0.96875 -6.734375 C 1.007812 -6.773438 1.0625 -6.796875 1.125 -6.796875 L 4.90625 -6.796875 C 4.976562 -6.796875 5.035156 -6.773438 5.078125 -6.734375 C 5.117188 -6.691406 5.140625 -6.632812 5.140625 -6.5625 L 5.140625 -6.421875 C 5.140625 -6.359375 5.113281 -6.304688 5.0625 -6.265625 C 5.019531 -6.222656 4.96875 -6.203125 4.90625 -6.203125 L 1.515625 -6.203125 L 1.515625 -3.734375 L 4.703125 -3.734375 C 4.765625 -3.734375 4.816406 -3.710938 4.859375 -3.671875 C 4.898438 -3.640625 4.921875 -3.585938 4.921875 -3.515625 L 4.921875 -3.359375 C 4.921875 -3.296875 4.898438 -3.242188 4.859375 -3.203125 C 4.816406 -3.171875 4.765625 -3.15625 4.703125 -3.15625 L 1.515625 -3.15625 L 1.515625 -0.578125 L 4.984375 -0.578125 C 5.054688 -0.578125 5.109375 -0.554688 5.140625 -0.515625 C 5.179688 -0.484375 5.203125 -0.429688 5.203125 -0.359375 L 5.203125 -0.21875 C 5.203125 -0.144531 5.179688 -0.0859375 5.140625 -0.046875 C 5.097656 -0.015625 5.046875 0 4.984375 0 Z M 1.125 0 "/></g></g></g><g fill="#333333" fill-opacity="1"><g transform="translate(63.835439, 42.184458)"><g><path d="M 1.125 0 C 1.0625 0 1.007812 -0.015625 0.96875 -0.046875 C 0.925781 -0.0859375 0.90625 -0.144531 0.90625 -0.21875 L 0.90625 -6.578125 C 0.90625 -6.640625 0.925781 -6.691406 0.96875 -6.734375 C 1.007812 -6.773438 1.0625 -6.796875 1.125 -6.796875 L 1.3125 -6.796875 C 1.375 -6.796875 1.421875 -6.773438 1.453125 -6.734375 C 1.492188 -6.691406 1.515625 -6.640625 1.515625 -6.578125 L 1.515625 -0.578125 L 4.875 -0.578125 C 4.945312 -0.578125 5 -0.554688 5.03125 -0.515625 C 5.070312 -0.484375 5.09375 -0.429688 5.09375 -0.359375 L 5.09375 -0.21875 C 5.09375 -0.144531 5.070312 -0.0859375 5.03125 -0.046875 C 4.988281 -0.015625 4.9375 0 4.875 0 Z M 1.125 0 "/></g></g></g><g fill="#333333" fill-opacity="1"><g transform="translate(69.397704, 42.184458)"><g/></g></g><g fill="#333333" fill-opacity="1"><g transform="translate(72.144878, 42.184458)"><g><path d="M 1.125 0 C 1.0625 0 1.007812 -0.015625 0.96875 -0.046875 C 0.925781 -0.0859375 0.90625 -0.144531 0.90625 -0.21875 L 0.90625 -6.5625 C 0.90625 -6.632812 0.925781 -6.691406 0.96875 -6.734375 C 1.007812 -6.773438 1.0625 -6.796875 1.125 -6.796875 L 3.484375 -6.796875 C 4.171875 -6.796875 4.710938 -6.617188 5.109375 -6.265625 C 5.515625 -5.921875 5.71875 -5.425781 5.71875 -4.78125 C 5.71875 -4.132812 5.515625 -3.640625 5.109375 -3.296875 C 4.710938 -2.953125 4.171875 -2.78125 3.484375 -2.78125 L 1.515625 -2.78125 L 1.515625 -0.21875 C 1.515625 -0.144531 1.492188 -0.0859375 1.453125 -0.046875 C 1.410156 -0.015625 1.359375 0 1.296875 0 Z M 3.4375 -3.359375 C 3.988281 -3.359375 4.40625 -3.476562 4.6875 -3.71875 C 4.96875 -3.957031 5.109375 -4.3125 5.109375 -4.78125 C 5.109375 -5.25 4.96875 -5.601562 4.6875 -5.84375 C 4.40625 -6.082031 3.988281 -6.203125 3.4375 -6.203125 L 1.515625 -6.203125 L 1.515625 -3.359375 Z M 3.4375 -3.359375 "/></g></g></g><g fill="#333333" fill-opacity="1"><g transform="translate(78.483719, 42.184458)"><g><path d="M 1.125 0 C 1.0625 0 1.007812 -0.015625 0.96875 -0.046875 C 0.925781 -0.0859375 0.90625 -0.144531 0.90625 -0.21875 L 0.90625 -6.5625 C 0.90625 -6.632812 0.925781 -6.691406 0.96875 -6.734375 C 1.007812 -6.773438 1.0625 -6.796875 1.125 -6.796875 L 4.90625 -6.796875 C 4.976562 -6.796875 5.035156 -6.773438 5.078125 -6.734375 C 5.117188 -6.691406 5.140625 -6.632812 5.140625 -6.5625 L 5.140625 -6.421875 C 5.140625 -6.359375 5.113281 -6.304688 5.0625 -6.265625 C 5.019531 -6.222656 4.96875 -6.203125 4.90625 -6.203125 L 1.515625 -6.203125 L 1.515625 -3.734375 L 4.703125 -3.734375 C 4.765625 -3.734375 4.816406 -3.710938 4.859375 -3.671875 C 4.898438 -3.640625 4.921875 -3.585938 4.921875 -3.515625 L 4.921875 -3.359375 C 4.921875 -3.296875 4.898438 -3.242188 4.859375 -3.203125 C 4.816406 -3.171875 4.765625 -3.15625 4.703125 -3.15625 L 1.515625 -3.15625 L 1.515625 -0.578125 L 4.984375 -0.578125 C 5.054688 -0.578125 5.109375 -0.554688 5.140625 -0.515625 C 5.179688 -0.484375 5.203125 -0.429688 5.203125 -0.359375 L 5.203125 -0.21875 C 5.203125 -0.144531 5.179688 -0.0859375 5.140625 -0.046875 C 5.097656 -0.015625 5.046875 0 4.984375 0 Z M 2.765625 -7.28125 C 2.660156 -7.28125 2.609375 -7.332031 2.609375 -7.4375 C 2.609375 -7.488281 2.625 -7.53125 2.65625 -7.5625 L 3.328125 -8.359375 C 3.378906 -8.429688 3.425781 -8.476562 3.46875 -8.5 C 3.519531 -8.519531 3.59375 -8.53125 3.6875 -8.53125 L 4.125 -8.53125 C 4.25 -8.53125 4.3125 -8.472656 4.3125 -8.359375 C 4.3125 -8.304688 4.296875 -8.265625 4.265625 -8.234375 L 3.203125 -7.375 C 3.148438 -7.332031 3.101562 -7.304688 3.0625 -7.296875 C 3.03125 -7.285156 2.976562 -7.28125 2.90625 -7.28125 Z M 2.765625 -7.28125 "/></g></g></g><g fill="#333333" fill-opacity="1"><g transform="translate(84.4731, 42.184458)"><g><path d="M 1.125 0 C 1.0625 0 1.007812 -0.015625 0.96875 -0.046875 C 0.925781 -0.0859375 0.90625 -0.144531 0.90625 -0.21875 L 0.90625 -6.5625 C 0.90625 -6.632812 0.925781 -6.691406 0.96875 -6.734375 C 1.007812 -6.773438 1.0625 -6.796875 1.125 -6.796875 L 3.390625 -6.796875 C 4.085938 -6.796875 4.632812 -6.628906 5.03125 -6.296875 C 5.425781 -5.960938 5.625 -5.472656 5.625 -4.828125 C 5.625 -4.316406 5.492188 -3.90625 5.234375 -3.59375 C 4.984375 -3.28125 4.625 -3.066406 4.15625 -2.953125 L 5.71875 -0.296875 C 5.738281 -0.265625 5.75 -0.226562 5.75 -0.1875 C 5.75 -0.132812 5.726562 -0.0859375 5.6875 -0.046875 C 5.644531 -0.015625 5.597656 0 5.546875 0 L 5.4375 0 C 5.332031 0 5.253906 -0.0195312 5.203125 -0.0625 C 5.160156 -0.101562 5.113281 -0.171875 5.0625 -0.265625 L 3.515625 -2.875 L 1.515625 -2.875 L 1.515625 -0.21875 C 1.515625 -0.144531 1.492188 -0.0859375 1.453125 -0.046875 C 1.410156 -0.015625 1.359375 0 1.296875 0 Z M 3.34375 -3.453125 C 3.90625 -3.453125 4.320312 -3.566406 4.59375 -3.796875 C 4.863281 -4.023438 5 -4.367188 5 -4.828125 C 5 -5.285156 4.863281 -5.628906 4.59375 -5.859375 C 4.320312 -6.085938 3.90625 -6.203125 3.34375 -6.203125 L 1.515625 -6.203125 L 1.515625 -3.453125 Z M 3.34375 -3.453125 "/></g></g></g><g fill="#333333" fill-opacity="1"><g transform="translate(90.928427, 42.184458)"><g><path d="M 1.125 0 C 1.0625 0 1.007812 -0.015625 0.96875 -0.046875 C 0.925781 -0.0859375 0.90625 -0.144531 0.90625 -0.21875 L 0.90625 -6.5625 C 0.90625 -6.632812 0.925781 -6.691406 0.96875 -6.734375 C 1.007812 -6.773438 1.0625 -6.796875 1.125 -6.796875 L 4.90625 -6.796875 C 4.976562 -6.796875 5.035156 -6.773438 5.078125 -6.734375 C 5.117188 -6.691406 5.140625 -6.632812 5.140625 -6.5625 L 5.140625 -6.421875 C 5.140625 -6.359375 5.113281 -6.304688 5.0625 -6.265625 C 5.019531 -6.222656 4.96875 -6.203125 4.90625 -6.203125 L 1.515625 -6.203125 L 1.515625 -3.734375 L 4.703125 -3.734375 C 4.765625 -3.734375 4.816406 -3.710938 4.859375 -3.671875 C 4.898438 -3.640625 4.921875 -3.585938 4.921875 -3.515625 L 4.921875 -3.359375 C 4.921875 -3.296875 4.898438 -3.242188 4.859375 -3.203125 C 4.816406 -3.171875 4.765625 -3.15625 4.703125 -3.15625 L 1.515625 -3.15625 L 1.515625 -0.578125 L 4.984375 -0.578125 C 5.054688 -0.578125 5.109375 -0.554688 5.140625 -0.515625 C 5.179688 -0.484375 5.203125 -0.429688 5.203125 -0.359375 L 5.203125 -0.21875 C 5.203125 -0.144531 5.179688 -0.0859375 5.140625 -0.046875 C 5.097656 -0.015625 5.046875 0 4.984375 0 Z M 1.125 0 "/></g></g></g><g fill="#333333" fill-opacity="1"><g transform="translate(96.917808, 42.184458)"><g><path d="M 0.625 0 C 0.5625 0 0.507812 -0.0195312 0.46875 -0.0625 C 0.425781 -0.101562 0.40625 -0.15625 0.40625 -0.21875 L 0.40625 -0.421875 C 0.40625 -0.523438 0.425781 -0.609375 0.46875 -0.671875 C 0.519531 -0.742188 0.546875 -0.78125 0.546875 -0.78125 L 4.375 -6.203125 L 0.703125 -6.203125 C 0.640625 -6.203125 0.585938 -6.222656 0.546875 -6.265625 C 0.515625 -6.304688 0.5 -6.359375 0.5 -6.421875 L 0.5 -6.5625 C 0.5 -6.632812 0.515625 -6.691406 0.546875 -6.734375 C 0.585938 -6.773438 0.640625 -6.796875 0.703125 -6.796875 L 4.890625 -6.796875 C 4.960938 -6.796875 5.015625 -6.773438 5.046875 -6.734375 C 5.085938 -6.691406 5.109375 -6.632812 5.109375 -6.5625 L 5.109375 -6.375 C 5.109375 -6.300781 5.097656 -6.238281 5.078125 -6.1875 C 5.054688 -6.144531 5.023438 -6.09375 4.984375 -6.03125 L 1.1875 -0.578125 L 4.984375 -0.578125 C 5.054688 -0.578125 5.109375 -0.554688 5.140625 -0.515625 C 5.179688 -0.484375 5.203125 -0.429688 5.203125 -0.359375 L 5.203125 -0.21875 C 5.203125 -0.144531 5.179688 -0.0859375 5.140625 -0.046875 C 5.097656 -0.015625 5.046875 0 4.984375 0 Z M 0.625 0 "/></g></g></g></svg>