<?xml version="1.0" encoding="UTF-8"?>
<svg width="682px" height="668px" viewBox="0 0 682 668" version="1.1" xmlns="http://www.w3.org/2000/svg" xmlns:xlink="http://www.w3.org/1999/xlink">
    <title>entries</title>
    <g id="Page-1" stroke="none" stroke-width="1" fill="none" fill-rule="evenodd" stroke-linecap="round" stroke-linejoin="round">
        <g id="entries" transform="translate(34, 34)" stroke="#FFFFFF" stroke-width="66.6666667">
            <path d="M233.333333,600 L106.666667,600 C69.33,600 50.6613333,600 36.4006667,592.733333 C23.8563333,586.343333 13.6576667,576.143333 7.26633333,563.6 C0,549.34 0,530.67 0,493.333333 L0,173.333333 C0,135.996667 0,117.328 7.26633333,103.067333 C13.6576667,90.523 23.8563333,80.3243333 36.4006667,73.933 C50.6613333,66.6666667 69.33,66.6666667 106.666667,66.6666667 L493.333333,66.6666667 C530.67,66.6666667 549.34,66.6666667 563.6,73.933 C576.143333,80.3243333 586.343333,90.523 592.733333,103.067333 C600,117.328 600,135.996667 600,173.333333 L600,233.333333 M133.333333,0 L133.333333,66.6666667 M466.666667,0 L466.666667,66.6666667 M0,200 L600,200 M350,333.336667 L133.333333,333.333333 M233.333333,466.67 L133.333333,466.666667 M366.666667,600 L434.166667,586.5 C440.05,585.323333 442.993333,584.733333 445.736667,583.656667 C448.173333,582.703333 450.49,581.463333 452.633333,579.966667 C455.053333,578.28 457.173333,576.16 461.42,571.913333 L600,433.333333 C618.41,414.923333 618.41,385.076667 600,366.666667 C581.59,348.256667 551.743333,348.256667 533.333333,366.666667 L394.753333,505.246667 C390.506667,509.493333 388.386667,511.613333 386.7,514.033333 C385.203333,516.176667 383.963333,518.493333 383.01,520.93 C381.933333,523.673333 381.343333,526.616667 380.166667,532.5 L366.666667,600 Z" id="Shape"></path>
        </g>
    </g>
</svg>