<?xml version="1.0" encoding="UTF-8"?>
<svg width="734px" height="734px" viewBox="0 0 734 734" version="1.1" xmlns="http://www.w3.org/2000/svg" xmlns:xlink="http://www.w3.org/1999/xlink">
    <title>invoice</title>
    <g id="Page-1" stroke="none" stroke-width="1" fill="none" fill-rule="evenodd">
        <g id="invoice" transform="translate(0, 0)" fill="#FFFFFF">
            <path d="M185.093667,20.1843333 C203.647,10.9083333 225.781333,0 266.666667,0 C307.55,0 329.686667,10.9073333 348.24,20.1833333 L348.77,20.449 C363.29,27.7103333 374.53,33.3303333 400,33.331 C441.236667,33.3326667 465.66,17.957 473.803333,11.8373333 C486.48,2.31066667 501.456667,3.114 511.796667,7.89666667 C522.27,12.741 533.333333,24.2996667 533.333333,41.3826667 L533.333333,400 L633.333333,400 C688.54,400 733.333333,444.716667 733.333333,499.966667 L733.333333,600 C733.333333,630.833333 725.53,656.173333 712.11,676.303333 C698.83,696.223333 681.36,709.086667 664.906667,717.313333 C648.583333,725.476667 632.663333,729.39 621.103333,731.316667 C614.163333,732.473333 607.053333,733.346667 600,733.333484 L133.333333,733.333484 C102.500667,733.333484 77.16,725.53 57.0306667,712.11 C37.1103333,698.83 24.2463333,681.36 16.019,664.906667 C7.85733333,648.583333 3.94233333,632.663333 2.016,621.106667 C1.03966667,615.246667 0.538666667,610.293333 0.28,606.673333 C0.0646666667,603.656667 0,601.87 0,600 L0,41.382 C0,24.2996667 11.0613333,12.741 21.5353333,7.89666667 C31.876,3.11366667 46.8536667,2.31033333 59.5296667,11.8363333 C67.673,17.956 92.0963333,33.331 133.333333,33.331 C158.805,33.331 170.042667,27.7113333 184.562667,20.45 L185.093667,20.1843333 Z M66.7773333,600 L66.6666667,89.457 C84.6726667,95.5256667 106.910667,99.9976667 133.333333,99.9976667 C174.218667,99.9976667 196.353,89.0896667 214.906333,79.8136667 L215.437333,79.548 C229.957333,72.2866667 241.195,66.6666667 266.666667,66.6666667 C292.139,66.6666667 303.376667,72.2863333 317.896667,79.5476667 L318.426667,79.813 C336.98,89.0886667 359.113333,99.9966667 400,99.9976667 C426.423333,99.9986667 448.66,95.527 466.666667,89.4576667 L466.666667,600 C466.666667,626.1 472.26,648.266667 482.116667,666.666667 L133.333333,666.666667 C114.166,666.666667 102.006667,661.97 94.011,656.64 C85.8063333,651.17 79.9203333,643.64 75.6476667,635.093333 C71.3093333,626.416667 68.9743333,617.336667 67.7756667,610.146667 C67.2123333,606.763333 66.8706667,603.413333 66.7773333,600 Z M610.146667,665.556667 C617.336667,664.36 626.416667,662.023333 635.093333,657.686667 C643.64,653.413333 651.17,647.526667 656.64,639.323333 C661.97,631.326667 666.666667,619.166667 666.666667,600 L666.666667,499.966667 C666.666667,481.58 651.763333,466.666667 633.333333,466.666667 L533.333333,466.666667 L533.333333,600 C533.333333,619.166667 538.03,631.326667 543.36,639.323333 C548.83,647.526667 556.36,653.413333 564.906667,657.686667 C573.583333,662.023333 582.663333,664.36 589.856667,665.556667 C593.373333,666.143333 596.23,666.423333 598.076667,666.556667 C602.096667,666.843333 606.19,666.216667 610.146667,665.556667 Z" id="Shape"></path>
            <path d="M133.333333,233.333333 C133.333333,214.924 148.257333,200 166.666667,200 L366.666667,200 C385.076667,200 400,214.924 400,233.333333 C400,251.743 385.076667,266.666667 366.666667,266.666667 L166.666667,266.666667 C148.257333,266.666667 133.333333,251.743 133.333333,233.333333 Z" id="Path" fill-rule="nonzero"></path>
            <path d="M133.333333,366.666667 C133.333333,348.256667 148.257333,333.333333 166.666667,333.333333 L366.666667,333.333333 C385.076667,333.333333 400,348.256667 400,366.666667 C400,385.076667 385.076667,400 366.666667,400 L166.666667,400 C148.257333,400 133.333333,385.076667 133.333333,366.666667 Z" id="Path" fill-rule="nonzero"></path>
            <path d="M133.333333,500 C133.333333,481.59 148.257333,466.666667 166.666667,466.666667 L366.666667,466.666667 C385.076667,466.666667 400,481.59 400,500 C400,518.41 385.076667,533.333333 366.666667,533.333333 L166.666667,533.333333 C148.257333,533.333333 133.333333,518.41 133.333333,500 Z" id="Path" fill-rule="nonzero"></path>
        </g>
    </g>
</svg>