<?xml version="1.0" encoding="UTF-8"?>
<svg width="696px" height="800px" viewBox="0 0 696 800" version="1.1" xmlns="http://www.w3.org/2000/svg" xmlns:xlink="http://www.w3.org/1999/xlink">
    <title>stopwatch</title>
    <g id="Page-1" stroke="none" stroke-width="1" fill="none" fill-rule="evenodd">
        <g id="stopwatch" fill="#1C3D37" fill-rule="nonzero">
            <path d="M186.124821,466.052793 C186.124821,477.511766 176.957643,487.006343 165.33497,487.006343 C159.605484,487.006343 154.367096,484.714549 150.602005,480.949458 C146.836914,477.184367 144.54512,471.945979 144.54512,466.216493 C144.54512,454.75752 153.712298,445.262943 165.33497,445.262943 C176.630244,445.262943 186.124821,454.59382 186.124821,466.052793 Z M200.039288,570.002046 C191.854307,578.187027 192.018007,591.282996 200.039288,599.467976 L200.039288,599.467976 C208.224268,607.489257 221.483937,607.489257 229.505218,599.304277 C237.690198,591.119296 237.526499,577.859628 229.341518,569.838347 C221.320237,561.817066 208.062206,561.817066 200.039288,570.002046 Z M333.128709,318.395744 C344.587682,318.395744 354.082259,309.064866 354.082259,297.442194 C354.082259,285.819521 344.751381,276.488643 333.128709,276.488643 C321.506036,276.488643 312.175159,285.819521 312.175159,297.442194 C312.175159,303.17168 314.466953,308.410068 318.232044,312.175159 C322.160835,316.103949 327.399222,318.395744 333.128709,318.395744 Z M199.22079,362.10354 C207.40577,370.124821 220.665439,370.124821 228.68672,361.93984 L228.850419,361.776141 C229.014119,361.612441 229.014119,361.612441 229.177819,361.448742 C237.362799,353.263761 237.362799,340.167792 229.177819,331.982812 C220.992838,323.797831 207.73317,323.797831 199.711889,331.982812 C199.548189,332.146511 199.548189,332.146511 199.384489,332.310211 C199.22079,332.47391 199.22079,332.47391 199.05709,332.63761 C191.035809,340.658891 191.035809,353.918559 199.22079,362.10354 L199.22079,362.10354 Z M333.619808,612.727645 C321.997135,612.727645 312.829957,622.058523 312.829957,633.681195 C312.829957,639.410681 315.121752,644.649069 318.886843,648.41416 C322.651934,652.179251 327.890321,654.471046 333.783507,654.471046 C345.24248,654.471046 354.573358,645.140168 354.573358,633.517495 C354.573358,622.058523 345.240843,612.727645 333.619808,612.727645 Z M437.567424,569.347248 C429.382443,577.532228 429.382443,590.791897 437.567424,598.813178 C445.752404,606.998158 459.012073,606.998158 467.033354,598.813178 C475.218334,590.628197 475.054635,577.368529 467.033354,569.183548 C458.848373,561.162267 445.590342,561.162267 437.567424,569.347248 Z M501.24821,444.444444 C489.625537,444.444444 480.294659,453.775322 480.294659,465.397995 C480.294659,471.127481 482.586454,476.365869 486.351545,480.13096 C490.116636,483.896051 495.355024,486.351545 501.08451,486.187845 C512.707182,486.187845 521.874361,476.856967 522.03806,465.234295 C522.20176,453.775322 512.869245,444.444444 501.24821,444.444444 Z M334.110906,800 C149.948844,800 0,650.051156 0,465.889094 C0,294.986699 129.158993,153.713935 294.986699,134.233681 L294.986699,83.6505013 L274.196849,83.6505013 C263.720074,83.6505013 255.371393,75.1381215 255.371393,64.825046 L255.371393,18.8254553 C255.371393,8.34868017 263.883773,0 274.196849,0 L394.024964,0 C404.501739,0 412.850419,8.51237978 412.850419,18.8254553 L412.850419,64.825046 C412.850419,75.3018212 404.33804,83.6505013 394.024964,83.6505013 L373.235114,83.6505013 L373.235114,134.069982 C436.259464,141.436464 493.881727,166.482505 541.190915,203.969716 L568.36505,176.79558 L565.909556,174.340086 C558.543073,166.973603 558.543073,155.023532 565.909556,147.657049 L603.233067,110.333538 C610.59955,102.967055 622.549621,102.967055 629.916104,110.333538 L690.32126,170.738694 C697.687743,178.105177 697.687743,190.055249 690.32126,197.421731 L652.997749,234.745242 C645.631267,242.111725 633.681195,242.111725 626.314713,234.745242 L623.859218,232.289748 L596.685083,259.463884 C641.538776,316.267649 668.221813,387.968079 668.221813,465.725394 C668.221813,650.051156 518.272969,800 334.110906,800 Z M590.62656,465.889094 C590.62656,324.452629 475.545734,209.371803 334.109269,209.371803 C192.672805,209.371803 77.5919787,324.452629 77.5919787,465.889094 C77.5919787,607.325558 192.509106,722.406384 334.109269,722.406384 C475.547371,722.406384 590.62656,607.325558 590.62656,465.889094 Z M468.344588,330.345815 C476.038469,338.039697 476.529568,350.480868 469.490485,358.665848 L384.366687,458.358911 C386.494782,473.910374 381.747493,490.116636 369.797422,502.066708 C349.66237,522.20176 316.922447,522.20176 296.623696,502.066708 C276.488643,481.931655 276.488643,449.191733 296.623696,428.892981 C308.573767,416.94291 324.780029,412.195621 340.331492,414.323716 L440.024555,329.199918 C448.371598,322.160835 460.649069,322.651934 468.344588,330.345815 L468.344588,330.345815 Z M348.025373,450.828729 C339.840393,442.643749 326.580724,442.643749 318.559443,450.828729 C310.374463,459.01371 310.374463,472.273378 318.559443,480.294659 C326.744424,488.47964 340.004092,488.47964 348.025373,480.294659 C356.210354,472.109679 356.210354,459.01371 348.025373,450.828729 Z" id="Shape"></path>
        </g>
    </g>
</svg>