<?xml version="1.0" encoding="UTF-8"?>
<svg width="606px" height="91px" viewBox="0 0 606 91" version="1.1" xmlns="http://www.w3.org/2000/svg" xmlns:xlink="http://www.w3.org/1999/xlink">
    <title>ProjectPacer</title>
    <g id="Page-1" stroke="none" stroke-width="1" fill="none" fill-rule="evenodd">
        <g id="ProjectPacer" transform="translate(0.9559, 0.257)" fill="#1C3D37" fill-rule="nonzero">
            <path d="M26.869,5.723 C31.7836667,5.723 35.987,6.5475 39.479,8.1965 C42.971,9.8455 45.6708333,12.2058333 47.5785,15.2775 C49.4861667,18.3491667 50.44,22.0513333 50.44,26.384 C50.44,30.7166667 49.4861667,34.4188333 47.5785,37.4905 C45.6708333,40.5621667 42.971,42.9225 39.479,44.5715 C35.987,46.2205 31.7836667,47.045 26.869,47.045 L13.386,47.045 L13.386,69.743 L-2.27373675e-13,69.743 L-2.27373675e-13,5.723 L26.869,5.723 Z M24.832,36.472 C28.8413333,36.472 31.8483333,35.6151667 33.853,33.9015 C35.8576667,32.1878333 36.86,29.682 36.86,26.384 C36.86,23.0213333 35.8576667,20.4993333 33.853,18.818 C31.8483333,17.1366667 28.8413333,16.296 24.832,16.296 L13.386,16.296 L13.386,36.472 L24.832,36.472 Z" id="Shape"></path>
            <path d="M61.6504286,69.743 L61.6504286,21.243 L73.1934286,21.243 L74.0664286,30.749 C75.3597619,27.3863333 77.2512619,24.7996667 79.7409286,22.989 C82.2305952,21.1783333 85.3507619,20.273 89.1014286,20.273 C90.2007619,20.273 91.2030952,20.37 92.1084286,20.564 C93.0137619,20.758 93.7574286,21.0166667 94.3394286,21.34 L92.7874286,32.495 C92.1407619,32.2363333 91.3485952,32.0423333 90.4109286,31.913 C89.4732619,31.7836667 88.2607619,31.719 86.7734286,31.719 C84.8334286,31.719 82.9580952,32.1878333 81.1474286,33.1255 C79.3367619,34.0631667 77.8494286,35.4858333 76.6854286,37.3935 C75.5214286,39.3011667 74.9394286,41.71 74.9394286,44.62 L74.9394286,69.743 L61.6504286,69.743 Z" id="Path"></path>
            <path d="M124.076857,20.273 C128.991524,20.273 133.308024,21.2753333 137.026357,23.28 C140.74469,25.2846667 143.65469,28.1623333 145.756357,31.913 C147.858024,35.6636667 148.908857,40.1903333 148.908857,45.493 C148.908857,50.731 147.858024,55.2415 145.756357,59.0245 C143.65469,62.8075 140.74469,65.7013333 137.026357,67.706 C133.308024,69.7106667 128.991524,70.713 124.076857,70.713 C119.226857,70.713 114.926524,69.7106667 111.175857,67.706 C107.42519,65.7013333 104.499024,62.8075 102.397357,59.0245 C100.29569,55.2415 99.2448571,50.731 99.2448571,45.493 C99.2448571,40.1903333 100.29569,35.6636667 102.397357,31.913 C104.499024,28.1623333 107.42519,25.2846667 111.175857,23.28 C114.926524,21.2753333 119.226857,20.273 124.076857,20.273 Z M124.076857,30.167 C121.619524,30.167 119.534024,30.7328333 117.820357,31.8645 C116.10669,32.9961667 114.79719,34.6936667 113.891857,36.957 C112.986524,39.2203333 112.533857,42.0656667 112.533857,45.493 C112.533857,48.9203333 112.986524,51.7656667 113.891857,54.029 C114.79719,56.2923333 116.10669,57.9898333 117.820357,59.1215 C119.534024,60.2531667 121.619524,60.819 124.076857,60.819 C126.469524,60.819 128.52269,60.2531667 130.236357,59.1215 C131.950024,57.9898333 133.259524,56.2923333 134.164857,54.029 C135.07019,51.7656667 135.522857,48.9203333 135.522857,45.493 C135.522857,42.0656667 135.07019,39.2203333 134.164857,36.957 C133.259524,34.6936667 131.950024,32.9961667 130.236357,31.8645 C128.52269,30.7328333 126.469524,30.167 124.076857,30.167 Z" id="Shape"></path>
            <path d="M167.103286,14.259 C164.322619,14.259 162.253286,13.6608333 160.895286,12.4645 C159.537286,11.2681667 158.858286,9.506 158.858286,7.178 C158.858286,4.78533333 159.537286,2.99083333 160.895286,1.7945 C162.253286,0.598166667 164.322619,0 167.103286,0 C169.883952,0 171.953286,0.598166667 173.311286,1.7945 C174.669286,2.99083333 175.348286,4.78533333 175.348286,7.178 C175.348286,9.506 174.669286,11.2681667 173.311286,12.4645 C171.953286,13.6608333 169.883952,14.259 167.103286,14.259 Z M173.699286,21.243 L173.699286,73.332 C173.699286,77.5353333 172.939452,80.898 171.419786,83.42 C169.900119,85.942 167.846952,87.7688333 165.260286,88.9005 C162.673619,90.0321667 159.731286,90.598 156.433286,90.598 C154.040619,90.598 151.874286,90.3231667 149.934286,89.7735 C147.994286,89.2238333 146.280619,88.464 144.793286,87.494 L146.927286,77.988 C147.703286,78.6346667 148.673286,79.1681667 149.837286,79.5885 C151.001286,80.0088333 152.294619,80.219 153.717286,80.219 C155.721952,80.219 157.338619,79.6208333 158.567286,78.4245 C159.795952,77.2281667 160.410286,75.1103333 160.410286,72.071 L160.410286,21.243 L173.699286,21.243 Z" id="Shape"></path>
            <path d="M210.614714,70.713 C205.506048,70.713 201.060214,69.7106667 197.277214,67.706 C193.494214,65.7013333 190.568048,62.8236667 188.498714,59.073 C186.429381,55.3223333 185.394714,50.7956667 185.394714,45.493 C185.394714,40.1903333 186.429381,35.6636667 188.498714,31.913 C190.568048,28.1623333 193.461881,25.2846667 197.180214,23.28 C200.898548,21.2753333 205.150381,20.273 209.935714,20.273 C214.850381,20.273 219.021381,21.2591667 222.448714,23.2315 C225.876048,25.2038333 228.495048,27.8875 230.305714,31.2825 C232.116381,34.6775 233.021714,38.5413333 233.021714,42.874 C233.021714,44.1673333 232.989381,45.396 232.924714,46.56 C232.860048,47.724 232.763048,48.7586667 232.633714,49.664 L193.930714,49.664 L193.930714,40.449 L226.813714,40.449 L220.411714,42.777 C220.411714,38.703 219.490214,35.5666667 217.647214,33.368 C215.804214,31.1693333 213.201381,30.07 209.838714,30.07 C207.381381,30.07 205.263548,30.652 203.485214,31.816 C201.706881,32.98 200.365048,34.7098333 199.459714,37.0055 C198.554381,39.3011667 198.101714,42.195 198.101714,45.687 C198.101714,49.1143333 198.602881,51.9435 199.605214,54.1745 C200.607548,56.4055 202.030214,58.0706667 203.873214,59.17 C205.716214,60.2693333 207.931048,60.819 210.517714,60.819 C213.363048,60.819 215.658714,60.2693333 217.404714,59.17 C219.150714,58.0706667 220.508714,56.551 221.478714,54.611 L232.051714,58.685 C231.017048,61.207 229.448881,63.3733333 227.347214,65.184 C225.245548,66.9946667 222.755881,68.3688333 219.878214,69.3065 C217.000548,70.2441667 213.912714,70.713 210.614714,70.713 Z" id="Path"></path>
            <path d="M266.639143,20.273 C270.97181,20.273 274.641643,20.9035 277.648643,22.1645 C280.655643,23.4255 283.080643,25.1391667 284.923643,27.3055 C286.766643,29.4718333 288.076143,31.8806667 288.852143,34.532 L276.436143,38.994 C275.789476,36.084 274.690143,33.8853333 273.138143,32.398 C271.586143,30.9106667 269.484476,30.167 266.833143,30.167 C264.37581,30.167 262.274143,30.7328333 260.528143,31.8645 C258.782143,32.9961667 257.456476,34.7098333 256.551143,37.0055 C255.64581,39.3011667 255.193143,42.1626667 255.193143,45.59 C255.193143,49.0173333 255.661976,51.8626667 256.599643,54.126 C257.53731,56.3893333 258.89531,58.0706667 260.673643,59.17 C262.451976,60.2693333 264.537476,60.819 266.930143,60.819 C268.870143,60.819 270.519143,60.4795 271.877143,59.8005 C273.235143,59.1215 274.350643,58.1353333 275.223643,56.842 C276.096643,55.5486667 276.69481,53.9966667 277.018143,52.186 L289.046143,56.066 C288.33481,58.976 287.009143,61.5303333 285.069143,63.729 C283.129143,65.9276667 280.639476,67.6413333 277.600143,68.87 C274.56081,70.0986667 271.036476,70.713 267.027143,70.713 C262.04781,70.713 257.650476,69.7106667 253.835143,67.706 C250.01981,65.7013333 247.077476,62.8236667 245.008143,59.073 C242.93881,55.3223333 241.904143,50.7956667 241.904143,45.493 C241.904143,40.1903333 242.93881,35.6636667 245.008143,31.913 C247.077476,28.1623333 249.987476,25.2846667 253.738143,23.28 C257.48881,21.2753333 261.789143,20.273 266.639143,20.273 Z" id="Path"></path>
            <path d="M316.843571,6.402 L316.843571,53.932 C316.843571,56.26 317.441738,57.9575 318.638071,59.0245 C319.834405,60.0915 321.467238,60.625 323.536571,60.625 C325.217905,60.625 326.656738,60.3825 327.853071,59.8975 C329.049405,59.4125 330.132571,58.7496667 331.102571,57.909 L333.236571,66.736 C331.684571,67.9646667 329.744571,68.9346667 327.416571,69.646 C325.088571,70.3573333 322.631238,70.713 320.044571,70.713 C316.811238,70.713 313.949738,70.228 311.460071,69.258 C308.970405,68.288 307.030405,66.736 305.640071,64.602 C304.249738,62.468 303.554571,59.6226667 303.554571,56.066 L303.554571,10.088 L316.843571,6.402 Z M332.363571,21.243 L332.363571,31.137 L294.630571,31.137 L294.630571,21.243 L332.363571,21.243 Z" id="Shape"></path>
            <path d="M369.958,5.723 C374.872667,5.723 379.076,6.5475 382.568,8.1965 C386.06,9.8455 388.759833,12.2058333 390.6675,15.2775 C392.575167,18.3491667 393.529,22.0513333 393.529,26.384 C393.529,30.7166667 392.575167,34.4188333 390.6675,37.4905 C388.759833,40.5621667 386.06,42.9225 382.568,44.5715 C379.076,46.2205 374.872667,47.045 369.958,47.045 L356.475,47.045 L356.475,69.743 L343.089,69.743 L343.089,5.723 L369.958,5.723 Z M367.921,36.472 C371.930333,36.472 374.937333,35.6151667 376.942,33.9015 C378.946667,32.1878333 379.949,29.682 379.949,26.384 C379.949,23.0213333 378.946667,20.4993333 376.942,18.818 C374.937333,17.1366667 371.930333,16.296 367.921,16.296 L356.475,16.296 L356.475,36.472 L367.921,36.472 Z" id="Shape"></path>
            <path d="M432.384429,38.8 C432.384429,36.0193333 431.592262,33.853 430.007929,32.301 C428.423595,30.749 426.338095,29.973 423.751429,29.973 C421.358762,29.973 419.257095,30.5873333 417.446429,31.816 C415.635762,33.0446667 414.310095,35.0816667 413.469429,37.927 L402.120429,34.435 C403.219762,30.167 405.628595,26.7396667 409.346929,24.153 C413.065262,21.5663333 418.060762,20.273 424.333429,20.273 C428.601429,20.273 432.319762,20.9358333 435.488429,22.2615 C438.657095,23.5871667 441.130595,25.5756667 442.908929,28.227 C444.687262,30.8783333 445.576429,34.2086667 445.576429,38.218 L445.576429,57.909 C445.576429,60.3663333 446.740429,61.595 449.068429,61.595 C450.167762,61.595 451.202429,61.4333333 452.172429,61.11 L451.396429,69.355 C449.715095,70.1956667 447.613429,70.616 445.091429,70.616 C442.828095,70.616 440.791095,70.228 438.980429,69.452 C437.169762,68.676 435.747095,67.4958333 434.712429,65.9115 C433.677762,64.3271667 433.160429,62.3386667 433.160429,59.946 L433.160429,59.558 L435.488429,59.17 C435.100429,61.6273333 434.033429,63.7128333 432.287429,65.4265 C430.541429,67.1401667 428.423595,68.4496667 425.933929,69.355 C423.444262,70.2603333 420.873762,70.713 418.222429,70.713 C414.924429,70.713 412.079095,70.2118333 409.686429,69.2095 C407.293762,68.2071667 405.450762,66.736 404.157429,64.796 C402.864095,62.856 402.217429,60.4633333 402.217429,57.618 C402.217429,53.9966667 403.381429,51.0381667 405.709429,48.7425 C408.037429,46.4468333 411.367762,44.8786667 415.700429,44.038 L433.936429,40.352 L433.839429,48.597 L422.199429,50.925 C420.000762,51.3776667 418.335595,51.9758333 417.203929,52.7195 C416.072262,53.4631667 415.506429,54.6756667 415.506429,56.357 C415.506429,57.9736667 416.104595,59.2023333 417.300929,60.043 C418.497262,60.8836667 419.936095,61.304 421.617429,61.304 C422.975429,61.304 424.301095,61.1423333 425.594429,60.819 C426.887762,60.4956667 428.051762,59.9783333 429.086429,59.267 C430.121095,58.5556667 430.929429,57.5856667 431.511429,56.357 C432.093429,55.1283333 432.384429,53.641 432.384429,51.895 L432.384429,38.8 Z" id="Path"></path>
            <path d="M482.588857,20.273 C486.921524,20.273 490.591357,20.9035 493.598357,22.1645 C496.605357,23.4255 499.030357,25.1391667 500.873357,27.3055 C502.716357,29.4718333 504.025857,31.8806667 504.801857,34.532 L492.385857,38.994 C491.73919,36.084 490.639857,33.8853333 489.087857,32.398 C487.535857,30.9106667 485.43419,30.167 482.782857,30.167 C480.325524,30.167 478.223857,30.7328333 476.477857,31.8645 C474.731857,32.9961667 473.40619,34.7098333 472.500857,37.0055 C471.595524,39.3011667 471.142857,42.1626667 471.142857,45.59 C471.142857,49.0173333 471.61169,51.8626667 472.549357,54.126 C473.487024,56.3893333 474.845024,58.0706667 476.623357,59.17 C478.40169,60.2693333 480.48719,60.819 482.879857,60.819 C484.819857,60.819 486.468857,60.4795 487.826857,59.8005 C489.184857,59.1215 490.300357,58.1353333 491.173357,56.842 C492.046357,55.5486667 492.644524,53.9966667 492.967857,52.186 L504.995857,56.066 C504.284524,58.976 502.958857,61.5303333 501.018857,63.729 C499.078857,65.9276667 496.58919,67.6413333 493.549857,68.87 C490.510524,70.0986667 486.98619,70.713 482.976857,70.713 C477.997524,70.713 473.60019,69.7106667 469.784857,67.706 C465.969524,65.7013333 463.02719,62.8236667 460.957857,59.073 C458.888524,55.3223333 457.853857,50.7956667 457.853857,45.493 C457.853857,40.1903333 458.888524,35.6636667 460.957857,31.913 C463.02719,28.1623333 465.93719,25.2846667 469.687857,23.28 C473.438524,21.2753333 477.738857,20.273 482.588857,20.273 Z" id="Path"></path>
            <path d="M538.128286,70.713 C533.019619,70.713 528.573786,69.7106667 524.790786,67.706 C521.007786,65.7013333 518.081619,62.8236667 516.012286,59.073 C513.942952,55.3223333 512.908286,50.7956667 512.908286,45.493 C512.908286,40.1903333 513.942952,35.6636667 516.012286,31.913 C518.081619,28.1623333 520.975452,25.2846667 524.693786,23.28 C528.412119,21.2753333 532.663952,20.273 537.449286,20.273 C542.363952,20.273 546.534952,21.2591667 549.962286,23.2315 C553.389619,25.2038333 556.008619,27.8875 557.819286,31.2825 C559.629952,34.6775 560.535286,38.5413333 560.535286,42.874 C560.535286,44.1673333 560.502952,45.396 560.438286,46.56 C560.373619,47.724 560.276619,48.7586667 560.147286,49.664 L521.444286,49.664 L521.444286,40.449 L554.327286,40.449 L547.925286,42.777 C547.925286,38.703 547.003786,35.5666667 545.160786,33.368 C543.317786,31.1693333 540.714952,30.07 537.352286,30.07 C534.894952,30.07 532.777119,30.652 530.998786,31.816 C529.220452,32.98 527.878619,34.7098333 526.973286,37.0055 C526.067952,39.3011667 525.615286,42.195 525.615286,45.687 C525.615286,49.1143333 526.116452,51.9435 527.118786,54.1745 C528.121119,56.4055 529.543786,58.0706667 531.386786,59.17 C533.229786,60.2693333 535.444619,60.819 538.031286,60.819 C540.876619,60.819 543.172286,60.2693333 544.918286,59.17 C546.664286,58.0706667 548.022286,56.551 548.992286,54.611 L559.565286,58.685 C558.530619,61.207 556.962452,63.3733333 554.860786,65.184 C552.759119,66.9946667 550.269452,68.3688333 547.391786,69.3065 C544.514119,70.2441667 541.426286,70.713 538.128286,70.713 Z" id="Path"></path>
            <path d="M572.133714,69.743 L572.133714,21.243 L583.676714,21.243 L584.549714,30.749 C585.843048,27.3863333 587.734548,24.7996667 590.224214,22.989 C592.713881,21.1783333 595.834048,20.273 599.584714,20.273 C600.684048,20.273 601.686381,20.37 602.591714,20.564 C603.497048,20.758 604.240714,21.0166667 604.822714,21.34 L603.270714,32.495 C602.624048,32.2363333 601.831881,32.0423333 600.894214,31.913 C599.956548,31.7836667 598.744048,31.719 597.256714,31.719 C595.316714,31.719 593.441381,32.1878333 591.630714,33.1255 C589.820048,34.0631667 588.332714,35.4858333 587.168714,37.3935 C586.004714,39.3011667 585.422714,41.71 585.422714,44.62 L585.422714,69.743 L572.133714,69.743 Z" id="Path"></path>
        </g>
    </g>
</svg>